ffmpeg version 3.1.4 Copyright (c) 2000-2016 the FFmpeg developers
  built with Apple LLVM version 8.0.0 (clang-800.0.38)
  configuration: --prefix=/usr/local/Cellar/ffmpeg/3.1.4 --enable-shared --enable-pthreads --enable-gpl --enable-version3 --enable-hardcoded-tables --enable-avresample --cc=clang --host-cflags= --host-ldflags= --enable-opencl --enable-libx264 --enable-libmp3lame --enable-libxvid --disable-lzma --enable-vda
  libavutil      55. 28.100 / 55. 28.100
  libavcodec     57. 48.101 / 57. 48.101
  libavformat    57. 41.100 / 57. 41.100
  libavdevice    57.  0.101 / 57.  0.101
  libavfilter     6. 47.100 /  6. 47.100
  libavresample   3.  0.  0 /  3.  0.  0
  libswscale      4.  1.100 /  4.  1.100
  libswresample   2.  1.100 /  2.  1.100
  libpostproc    54.  0.100 / 54.  0.100
Input #0, image2pipe, from 'pipe:':
  Duration: N/A, bitrate: N/A
    Stream #0:0: Video: ppm, rgb24, 320x240, 24 fps, 24 tbr, 24 tbn, 24 tbc
[libx264 @ 0x7ffa47001800] using cpu capabilities: MMX2 SSE2Fast SSSE3 SSE4.2 AVX
[libx264 @ 0x7ffa47001800] profile High, level 1.3
[libx264 @ 0x7ffa47001800] 264 - core 148 r2699 a5e06b9 - H.264/MPEG-4 AVC codec - Copyleft 2003-2016 - http://www.videolan.org/x264.html - options: cabac=1 ref=3 deblock=1:0:0 analyse=0x3:0x113 me=hex subme=7 psy=1 psy_rd=1.00:0.00 mixed_ref=1 me_range=16 chroma_me=1 trellis=1 8x8dct=1 cqm=0 deadzone=21,11 fast_pskip=1 chroma_qp_offset=-2 threads=6 lookahead_threads=1 sliced_threads=0 nr=0 decimate=1 interlaced=0 bluray_compat=0 constrained_intra=0 bframes=3 b_pyramid=2 b_adapt=1 b_bias=0 direct=1 weightb=1 open_gop=0 weightp=2 keyint=250 keyint_min=24 scenecut=40 intra_refresh=0 rc_lookahead=40 rc=abr mbtree=1 bitrate=400 ratetol=1.0 qcomp=0.60 qpmin=0 qpmax=69 qpstep=4 ip_ratio=1.40 aq=1:1.00
[mp4 @ 0x7ffa47002400] Using AVStream.codec to pass codec parameters to muxers is deprecated, use AVStream.codecpar instead.
Output #0, mp4, to './mission_records/2a42f9f1-9620-4292-8469-1a267b7d2360/video.mp4':
  Metadata:
    encoder         : Lavf57.41.100
    Stream #0:0: Video: h264 (libx264) ([33][0][0][0] / 0x0021), yuv420p, 320x240, q=-1--1, 400 kb/s, 24 fps, 12288 tbn, 24 tbc
    Metadata:
      encoder         : Lavc57.48.101 libx264
    Side data:
      cpb: bitrate max/min/avg: 0/0/400000 buffer size: 0 vbv_delay: -1
Stream mapping:
  Stream #0:0 -> #0:0 (ppm (native) -> h264 (libx264))
frame=   34 fps=0.0 q=0.0 size=       0kB time=00:00:00.00 bitrate=N/A speed=   0x    frame=   45 fps= 43 q=0.0 size=       0kB time=00:00:00.00 bitrate=N/A speed=   0x    frame=   56 fps= 36 q=26.0 size=       2kB time=00:00:00.12 bitrate= 100.2kbits/s speed=0.0798x    frame=   67 fps= 32 q=6.0 size=       3kB time=00:00:00.58 bitrate=  44.6kbits/s speed=0.278x    frame=   78 fps= 30 q=2.0 size=       4kB time=00:00:01.04 bitrate=  31.4kbits/s speed= 0.4x    frame=   89 fps= 29 q=0.0 size=       4kB time=00:00:01.50 bitrate=  23.0kbits/s speed=0.481x    frame=  100 fps= 28 q=0.0 size=      10kB time=00:00:01.95 bitrate=  41.3kbits/s speed=0.539x    frame=  111 fps= 27 q=0.0 size=      13kB time=00:00:02.41 bitrate=  44.7kbits/s speed=0.579x    frame=  122 fps= 26 q=0.0 size=      18kB time=00:00:02.87 bitrate=  52.2kbits/s speed=0.613x    frame=  133 fps= 26 q=0.0 size=      24kB time=00:00:03.33 bitrate=  59.8kbits/s speed=0.642x    frame=  144 fps= 25 q=0.0 size=      30kB time=00:00:03.79 bitrate=  64.0kbits/s speed=0.665x    frame=  155 fps= 25 q=0.0 size=      34kB time=00:00:04.25 bitrate=  64.6kbits/s speed=0.684x    frame=  166 fps= 25 q=0.0 size=      39kB time=00:00:04.70 bitrate=  68.7kbits/s speed=0.701x    frame=  177 fps= 24 q=0.0 size=      42kB time=00:00:05.16 bitrate=  66.4kbits/s speed=0.713x    frame=  188 fps= 24 q=0.0 size=      47kB time=00:00:05.62 bitrate=  69.0kbits/s speed=0.725x    frame=  199 fps= 24 q=0.0 size=      53kB time=00:00:06.08 bitrate=  71.0kbits/s speed=0.734x    frame=  210 fps= 24 q=0.0 size=      57kB time=00:00:06.54 bitrate=  71.2kbits/s speed=0.743x    frame=  221 fps= 24 q=0.0 size=      60kB time=00:00:07.00 bitrate=  70.4kbits/s speed=0.752x    frame=  232 fps= 24 q=0.0 size=      64kB time=00:00:07.45 bitrate=  70.0kbits/s speed=0.759x    frame=  243 fps= 24 q=0.0 size=      68kB time=00:00:07.91 bitrate=  70.1kbits/s speed=0.766x    frame=  254 fps= 23 q=0.0 size=      70kB time=00:00:08.37 bitrate=  68.9kbits/s speed=0.773x    frame=  265 fps= 23 q=0.0 size=      74kB time=00:00:08.83 bitrate=  68.2kbits/s speed=0.777x    frame=  276 fps= 23 q=0.0 size=      76kB time=00:00:09.29 bitrate=  66.9kbits/s speed=0.783x    frame=  287 fps= 23 q=0.0 size=      77kB time=00:00:09.75 bitrate=  65.1kbits/s speed=0.787x    frame=  298 fps= 23 q=0.0 size=      81kB time=00:00:10.20 bitrate=  65.2kbits/s speed=0.791x    frame=  309 fps= 23 q=0.0 size=      84kB time=00:00:10.66 bitrate=  64.8kbits/s speed=0.794x    frame=  320 fps= 23 q=0.0 size=      85kB time=00:00:11.12 bitrate=  62.6kbits/s speed=0.797x    frame=  331 fps= 23 q=0.0 size=      86kB time=00:00:11.58 bitrate=  60.7kbits/s speed=0.799x    frame=  342 fps= 23 q=0.0 size=      90kB time=00:00:12.04 bitrate=  60.9kbits/s speed=0.801x    frame=  353 fps= 23 q=0.0 size=      95kB time=00:00:12.50 bitrate=  62.5kbits/s speed=0.803x    frame=  364 fps= 23 q=0.0 size=     101kB time=00:00:12.95 bitrate=  63.8kbits/s speed=0.805x    frame=  375 fps= 23 q=0.0 size=     106kB time=00:00:13.41 bitrate=  64.7kbits/s speed=0.806x    frame=  386 fps= 22 q=0.0 size=     111kB time=00:00:13.87 bitrate=  65.4kbits/s speed=0.808x    frame=  397 fps= 22 q=0.0 size=     114kB time=00:00:14.33 bitrate=  65.1kbits/s speed=0.81x    frame=  408 fps= 22 q=0.0 size=     119kB time=00:00:14.79 bitrate=  65.8kbits/s speed=0.811x    frame=  419 fps= 22 q=0.0 size=     121kB time=00:00:15.25 bitrate=  65.1kbits/s speed=0.813x    frame=  430 fps= 22 q=0.0 size=     126kB time=00:00:15.70 bitrate=  65.6kbits/s speed=0.814x    frame=  441 fps= 22 q=0.0 size=     129kB time=00:00:16.16 bitrate=  65.5kbits/s speed=0.815x    frame=  452 fps= 22 q=0.0 size=     133kB time=00:00:16.62 bitrate=  65.4kbits/s speed=0.816x    frame=  462 fps= 22 q=0.0 size=     142kB time=00:00:17.04 bitrate=  68.1kbits/s speed=0.817x    frame=  473 fps= 22 q=0.0 size=     145kB time=00:00:17.50 bitrate=  68.0kbits/s speed=0.818x    frame=  484 fps= 22 q=0.0 size=     156kB time=00:00:17.95 bitrate=  71.1kbits/s speed=0.819x    frame=  495 fps= 22 q=0.0 size=     162kB time=00:00:18.41 bitrate=  72.2kbits/s speed=0.82x    frame=  506 fps= 22 q=0.0 size=     168kB time=00:00:18.87 bitrate=  73.0kbits/s speed=0.821x    frame=  517 fps= 22 q=0.0 size=     172kB time=00:00:19.33 bitrate=  73.0kbits/s speed=0.822x    frame=  528 fps= 22 q=0.0 size=     177kB time=00:00:19.79 bitrate=  73.5kbits/s speed=0.823x    frame=  539 fps= 22 q=0.0 size=     185kB time=00:00:20.25 bitrate=  74.8kbits/s speed=0.823x    frame=  550 fps= 22 q=0.0 size=     191kB time=00:00:20.70 bitrate=  75.5kbits/s speed=0.824x    frame=  561 fps= 22 q=0.0 size=     196kB time=00:00:21.16 bitrate=  75.8kbits/s speed=0.825x    frame=  572 fps= 22 q=0.0 size=     201kB time=00:00:21.62 bitrate=  76.0kbits/s speed=0.826x    frame=  583 fps= 22 q=0.0 size=     205kB time=00:00:22.08 bitrate=  76.1kbits/s speed=0.826x    frame=  594 fps= 22 q=0.0 size=     210kB time=00:00:22.54 bitrate=  76.5kbits/s speed=0.827x    frame=  605 fps= 22 q=0.0 size=     215kB time=00:00:23.00 bitrate=  76.6kbits/s speed=0.828x    frame=  616 fps= 22 q=0.0 size=     218kB time=00:00:23.45 bitrate=  76.2kbits/s speed=0.829x    frame=  627 fps= 22 q=0.0 size=     223kB time=00:00:23.91 bitrate=  76.3kbits/s speed=0.829x    frame=  638 fps= 22 q=0.0 size=     224kB time=00:00:24.37 bitrate=  75.4kbits/s speed=0.83x    frame=  649 fps= 22 q=0.0 size=     228kB time=00:00:24.83 bitrate=  75.1kbits/s speed=0.83x    frame=  660 fps= 22 q=0.0 size=     234kB time=00:00:25.29 bitrate=  75.7kbits/s speed=0.831x    frame=  671 fps= 22 q=0.0 size=     237kB time=00:00:25.75 bitrate=  75.5kbits/s speed=0.831x    frame=  682 fps= 22 q=0.0 size=     244kB time=00:00:26.20 bitrate=  76.1kbits/s speed=0.832x    frame=  693 fps= 22 q=0.0 size=     248kB time=00:00:26.66 bitrate=  76.2kbits/s speed=0.832x    frame=  704 fps= 22 q=0.0 size=     253kB time=00:00:27.12 bitrate=  76.3kbits/s speed=0.833x    frame=  715 fps= 22 q=0.0 size=     258kB time=00:00:27.58 bitrate=  76.7kbits/s speed=0.834x    frame=  726 fps= 22 q=0.0 size=     262kB time=00:00:28.04 bitrate=  76.5kbits/s speed=0.835x    frame=  737 fps= 22 q=0.0 size=     265kB time=00:00:28.50 bitrate=  76.3kbits/s speed=0.835x    frame=  748 fps= 22 q=0.0 size=     270kB time=00:00:28.95 bitrate=  76.3kbits/s speed=0.835x    frame=  759 fps= 22 q=0.0 size=     276kB time=00:00:29.41 bitrate=  76.7kbits/s speed=0.836x    frame=  770 fps= 22 q=0.0 size=     280kB time=00:00:29.87 bitrate=  76.7kbits/s speed=0.836x    frame=  780 fps= 22 q=0.0 size=     285kB time=00:00:30.29 bitrate=  77.0kbits/s speed=0.836x    frame=  791 fps= 22 q=0.0 size=     288kB time=00:00:30.75 bitrate=  76.7kbits/s speed=0.837x    frame=  801 fps= 22 q=0.0 size=     292kB time=00:00:31.16 bitrate=  76.9kbits/s speed=0.837x    frame=  812 fps= 21 q=0.0 size=     298kB time=00:00:31.62 bitrate=  77.3kbits/s speed=0.837x    frame=  823 fps= 21 q=0.0 size=     303kB time=00:00:32.08 bitrate=  77.4kbits/s speed=0.838x    frame=  834 fps= 21 q=0.0 size=     307kB time=00:00:32.54 bitrate=  77.3kbits/s speed=0.838x    frame=  845 fps= 21 q=0.0 size=     311kB time=00:00:33.00 bitrate=  77.3kbits/s speed=0.838x    frame=  856 fps= 21 q=0.0 size=     317kB time=00:00:33.45 bitrate=  77.5kbits/s speed=0.839x    frame=  867 fps= 21 q=0.0 size=     322kB time=00:00:33.91 bitrate=  77.8kbits/s speed=0.839x    frame=  878 fps= 21 q=0.0 size=     323kB time=00:00:34.37 bitrate=  77.0kbits/s speed=0.84x    frame=  889 fps= 21 q=0.0 size=     329kB time=00:00:34.83 bitrate=  77.3kbits/s speed=0.84x    frame=  900 fps= 21 q=0.0 size=     331kB time=00:00:35.29 bitrate=  76.8kbits/s speed=0.84x    frame=  911 fps= 21 q=0.0 size=     336kB time=00:00:35.75 bitrate=  77.0kbits/s speed=0.84x    frame=  922 fps= 21 q=0.0 size=     340kB time=00:00:36.20 bitrate=  76.8kbits/s speed=0.84x    frame=  933 fps= 21 q=0.0 size=     342kB time=00:00:36.66 bitrate=  76.5kbits/s speed=0.841x    frame=  944 fps= 21 q=0.0 size=     345kB time=00:00:37.12 bitrate=  76.2kbits/s speed=0.841x    frame=  955 fps= 21 q=0.0 size=     351kB time=00:00:37.58 bitrate=  76.4kbits/s speed=0.841x    frame=  966 fps= 21 q=0.0 size=     356kB time=00:00:38.04 bitrate=  76.7kbits/s speed=0.841x    frame=  977 fps= 21 q=0.0 size=     359kB time=00:00:38.50 bitrate=  76.4kbits/s speed=0.842x    frame=  988 fps= 21 q=0.0 size=     363kB time=00:00:38.95 bitrate=  76.3kbits/s speed=0.842x    frame=  999 fps= 21 q=0.0 size=     365kB time=00:00:39.41 bitrate=  75.8kbits/s speed=0.842x    frame= 1010 fps= 21 q=0.0 size=     368kB time=00:00:39.87 bitrate=  75.7kbits/s speed=0.842x    frame= 1021 fps= 21 q=0.0 size=     373kB time=00:00:40.33 bitrate=  75.7kbits/s speed=0.842x    frame= 1032 fps= 21 q=0.0 size=     377kB time=00:00:40.79 bitrate=  75.7kbits/s speed=0.843x    frame= 1043 fps= 21 q=0.0 size=     380kB time=00:00:41.25 bitrate=  75.4kbits/s speed=0.843x    frame= 1054 fps= 21 q=0.0 size=     381kB time=00:00:41.70 bitrate=  74.9kbits/s speed=0.843x    frame= 1065 fps= 21 q=0.0 size=     382kB time=00:00:42.16 bitrate=  74.2kbits/s speed=0.844x    frame= 1076 fps= 21 q=0.0 size=     385kB time=00:00:42.62 bitrate=  73.9kbits/s speed=0.844x    frame= 1087 fps= 21 q=0.0 size=     385kB time=00:00:43.08 bitrate=  73.3kbits/s speed=0.845x    frame= 1098 fps= 21 q=0.0 size=     386kB time=00:00:43.54 bitrate=  72.7kbits/s speed=0.845x    frame= 1109 fps= 21 q=0.0 size=     387kB time=00:00:44.00 bitrate=  72.0kbits/s speed=0.845x    frame= 1120 fps= 21 q=0.0 size=     390kB time=00:00:44.45 bitrate=  71.8kbits/s speed=0.846x    frame= 1131 fps= 21 q=0.0 size=     394kB time=00:00:44.91 bitrate=  71.8kbits/s speed=0.846x    frame= 1142 fps= 21 q=0.0 size=     396kB time=00:00:45.37 bitrate=  71.5kbits/s speed=0.846x    frame= 1153 fps= 21 q=0.0 size=     399kB time=00:00:45.83 bitrate=  71.3kbits/s speed=0.846x    frame= 1164 fps= 21 q=0.0 size=     403kB time=00:00:46.29 bitrate=  71.4kbits/s speed=0.847x    frame= 1175 fps= 21 q=0.0 size=     407kB time=00:00:46.75 bitrate=  71.3kbits/s speed=0.847x    frame= 1186 fps= 21 q=0.0 size=     412kB time=00:00:47.20 bitrate=  71.4kbits/s speed=0.847x    frame= 1197 fps= 21 q=0.0 size=     414kB time=00:00:47.66 bitrate=  71.2kbits/s speed=0.847x    frame= 1208 fps= 21 q=0.0 size=     418kB time=00:00:48.12 bitrate=  71.2kbits/s speed=0.848x    frame= 1219 fps= 21 q=0.0 size=     421kB time=00:00:48.58 bitrate=  70.9kbits/s speed=0.848x    frame= 1230 fps= 21 q=0.0 size=     427kB time=00:00:49.04 bitrate=  71.3kbits/s speed=0.848x    frame= 1241 fps= 21 q=0.0 size=     429kB time=00:00:49.50 bitrate=  71.0kbits/s speed=0.848x    frame= 1252 fps= 21 q=0.0 size=     432kB time=00:00:49.95 bitrate=  70.8kbits/s speed=0.848x    frame= 1252 fps= 21 q=-1.0 Lsize=     460kB time=00:00:52.04 bitrate=  72.4kbits/s speed=0.882x    
video:445kB audio:0kB subtitle:0kB other streams:0kB global headers:0kB muxing overhead: 3.358514%
[libx264 @ 0x7ffa47001800] frame I:61    Avg QP: 0.44  size:  1199
[libx264 @ 0x7ffa47001800] frame P:397   Avg QP: 0.78  size:   625
[libx264 @ 0x7ffa47001800] frame B:794   Avg QP: 2.30  size:   168
[libx264 @ 0x7ffa47001800] consecutive B-frames: 10.1% 12.0% 11.7% 66.1%
[libx264 @ 0x7ffa47001800] mb I  I16..4: 86.9%  2.0% 11.1%
[libx264 @ 0x7ffa47001800] mb P  I16..4: 26.3%  0.5%  2.3%  P16..4:  6.5%  1.4%  0.9%  0.0%  0.0%    skip:62.1%
[libx264 @ 0x7ffa47001800] mb B  I16..4:  3.6%  0.0%  0.0%  B16..8:  4.7%  0.8%  0.2%  direct: 0.6%  skip:90.0%  L0:35.0% L1:63.3% BI: 1.7%
[libx264 @ 0x7ffa47001800] final ratefactor: -18.46
[libx264 @ 0x7ffa47001800] 8x8 transform intra:1.6% inter:32.2%
[libx264 @ 0x7ffa47001800] coded y,uvDC,uvAC intra: 5.1% 0.0% 0.0% inter: 1.9% 0.0% 0.0%
[libx264 @ 0x7ffa47001800] i16 v,h,dc,p: 73% 24%  3%  0%
[libx264 @ 0x7ffa47001800] i8 v,h,dc,ddl,ddr,vr,hd,vl,hu: 59% 26% 13%  0%  0%  0%  0%  0%  0%
[libx264 @ 0x7ffa47001800] i4 v,h,dc,ddl,ddr,vr,hd,vl,hu: 48% 27% 19%  1%  1%  0%  1%  0%  1%
[libx264 @ 0x7ffa47001800] i8c dc,h,v,p: 100%  0%  0%  0%
[libx264 @ 0x7ffa47001800] Weighted P-Frames: Y:7.3% UV:0.0%
[libx264 @ 0x7ffa47001800] ref P L0: 65.3% 13.2% 19.2%  2.2%  0.1%
[libx264 @ 0x7ffa47001800] ref B L0: 89.2%  9.6%  1.2%
[libx264 @ 0x7ffa47001800] ref B L1: 97.4%  2.6%
[libx264 @ 0x7ffa47001800] kb/s:69.73
kbits/s speed=0.838x    frame= 1401 fps= 21 q=23.0 size=    3083kB time=00:00:56.16 bitrate= 449.7kbits/s speed=0.838x    frame= 1411 fps= 21 q=23.0 size=    3125kB time=00:00:56.58 bitrate= 452.4kbits/s speed=0.837x    frame= 1421 fps= 21 q=23.0 size=    3157kB time=00:00:57.00 bitrate= 453.7kbits/s speed=0.837x    frame= 1431 fps= 21 q=23.0 size=    3186kB time=00:00:57.41 bitrate= 454.6kbits/s speed=0.837x    frame= 1442 fps= 21 q=23.0 size=    3206kB time=00:00:57.87 bitrate= 453.8kbits/s speed=0.837x    frame= 1453 fps= 21 q=23.0 size=    3212kB time=00:00:58.33 bitrate= 451.0kbits/s speed=0.837x    frame= 1463 fps= 21 q=23.0 size=    3242kB time=00:00:58.75 bitrate= 452.0kbits/s speed=0.837x    frame= 1472 fps= 21 q=23.0 size=    3269kB time=00:00:59.12 bitrate= 452.9kbits/s speed=0.836x    frame= 1483 fps= 21 q=23.0 size=    3296kB time=00:00:59.58 bitrate= 453.1kbits/s speed=0.836x    frame= 1494 fps= 21 q=23.0 size=    3310kB time=00:01:00.04 bitrate= 451.7kbits/s speed=0.837x    frame= 1505 fps= 21 q=23.0 size=    3321kB time=00:01:00.50 bitrate= 449.6kbits/s speed=0.837x    frame= 1516 fps= 21 q=23.0 size=    3323kB time=00:01:00.95 bitrate= 446.6kbits/s speed=0.837x    frame= 1527 fps= 21 q=23.0 size=    3356kB time=00:01:01.41 bitrate= 447.6kbits/s speed=0.838x    frame= 1538 fps= 21 q=23.0 size=    3378kB time=00:01:01.87 bitrate= 447.2kbits/s speed=0.838x    frame= 1549 fps= 21 q=23.0 size=    3392kB time=00:01:02.33 bitrate= 445.8kbits/s speed=0.838x    frame= 1560 fps= 21 q=23.0 size=    3407kB time=00:01:02.79 bitrate= 444.5kbits/s speed=0.839x    frame= 1571 fps= 21 q=23.0 size=    3411kB time=00:01:03.25 bitrate= 441.8kbits/s speed=0.839x    frame= 1582 fps= 21 q=23.0 size=    3415kB time=00:01:03.70 bitrate= 439.1kbits/s speed=0.839x    frame= 1593 fps= 21 q=22.0 size=    3417kB time=00:01:04.16 bitrate= 436.2kbits/s speed=0.84x    frame= 1604 fps= 21 q=22.0 size=    3418kB time=00:01:04.62 bitrate= 433.2kbits/s speed=0.84x    frame= 1615 fps= 21 q=22.0 size=    3427kB time=00:01:05.08 bitrate= 431.4kbits/s speed=0.84x    frame= 1626 fps= 21 q=22.0 size=    3431kB time=00:01:05.54 bitrate= 428.8kbits/s speed=0.841x    frame= 1637 fps= 21 q=22.0 size=    3447kB time=00:01:06.00 bitrate= 427.9kbits/s speed=0.84x    frame= 1647 fps= 21 q=22.0 size=    3459kB time=00:01:06.41 bitrate= 426.7kbits/s speed=0.84x    frame= 1658 fps= 21 q=22.0 size=    3498kB time=00:01:06.87 bitrate= 428.5kbits/s speed=0.841x    frame= 1669 fps= 21 q=22.0 size=    3548kB time=00:01:07.33 bitrate= 431.7kbits/s speed=0.841x    frame= 1681 fps= 21 q=22.0 size=    3582kB time=00:01:07.83 bitrate= 432.6kbits/s speed=0.842x    frame= 1692 fps= 21 q=22.0 size=    3625kB time=00:01:08.29 bitrate= 434.8kbits/s speed=0.842x    frame= 1703 fps= 21 q=23.0 size=    3655kB time=00:01:08.75 bitrate= 435.5kbits/s speed=0.842x    frame= 1714 fps= 21 q=23.0 size=    3674kB time=00:01:09.20 bitrate= 434.8kbits/s speed=0.842x    frame= 1724 fps= 21 q=23.0 size=    3715kB time=00:01:09.62 bitrate= 437.1kbits/s speed=0.842x    frame= 1735 fps= 21 q=23.0 size=    3733kB time=00:01:10.08 bitrate= 436.3kbits/s speed=0.842x    frame= 1747 fps= 21 q=23.0 size=    3737kB time=00:01:10.58 bitrate= 433.7kbits/s speed=0.843x    frame= 1757 fps= 21 q=23.0 size=    3768kB time=00:01:11.00 bitrate= 434.7kbits/s speed=0.843x    frame= 1768 fps= 21 q=23.0 size=    3793kB time=00:01:11.45 bitrate= 434.8kbits/s speed=0.843x    frame= 1779 fps= 21 q=23.0 size=    3802kB time=00:01:11.91 bitrate= 433.1kbits/s speed=0.843x    frame= 1790 fps= 21 q=23.0 size=    3839kB time=00:01:12.37 bitrate= 434.5kbits/s speed=0.843x    frame= 1801 fps= 21 q=23.0 size=    3858kB time=00:01:12.83 bitrate= 433.9kbits/s speed=0.843x    frame= 1812 fps= 21 q=20.0 size=    3885kB time=00:01:13.29 bitrate= 434.2kbits/s speed=0.844x    frame= 1823 fps= 21 q=20.0 size=    3895kB time=00:01:13.75 bitrate= 432.6kbits/s speed=0.844x    frame= 1834 fps= 21 q=23.0 size=    3930kB time=00:01:14.20 bitrate= 433.8kbits/s speed=0.844x    frame= 1845 fps= 21 q=23.0 size=    3948kB time=00:01:14.66 bitrate= 433.2kbits/s speed=0.844x    frame= 1856 fps= 21 q=23.0 size=    3960kB time=00:01:15.12 bitrate= 431.8kbits/s speed=0.844x    frame= 1867 fps= 21 q=23.0 size=    3967kB time=00:01:15.58 bitrate= 429.9kbits/s speed=0.845x    frame= 1879 fps= 21 q=22.0 size=    3974kB time=00:01:16.08 bitrate= 427.9kbits/s speed=0.845x    frame= 1889 fps= 21 q=22.0 size=    3976kB time=00:01:16.50 bitrate= 425.8kbits/s speed=0.845x    frame= 1900 fps= 21 q=22.0 size=    3980kB time=00:01:16.95 bitrate= 423.6kbits/s speed=0.845x    frame= 1905 fps= 21 q=-1.0 Lsize=    4015kB time=00:01:19.25 bitrate= 415.0kbits/s speed=0.866x    
video:3992kB audio:0kB subtitle:0kB other streams:0kB global headers:0kB muxing overhead: 0.565025%
[libx264 @ 0x7fb02480b000] frame I:67    Avg QP: 8.55  size: 12373
[libx264 @ 0x7fb02480b000] frame P:598   Avg QP:14.77  size:  3533
[libx264 @ 0x7fb02480b000] frame B:1240  Avg QP:19.39  size:   924
[libx264 @ 0x7fb02480b000] consecutive B-frames:  9.1%  9.9%  7.1% 73.9%
[libx264 @ 0x7fb02480b000] mb I  I16..4: 22.1% 19.3% 58.6%
[libx264 @ 0x7fb02480b000] mb P  I16..4:  2.7%  3.3%  7.2%  P16..4: 13.6%  5.7%  5.1%  0.0%  0.0%    skip:62.4%
[libx264 @ 0x7fb02480b000] mb B  I16..4:  0.1%  0.1%  0.2%  B16..8: 14.1%  3.9%  1.6%  direct: 1.2%  skip:78.7%  L0:34.0% L1:62.5% BI: 3.5%
[libx264 @ 0x7fb02480b000] final ratefactor: 14.51
[libx264 @ 0x7fb02480b000] 8x8 transform intra:22.7% inter:16.1%
[libx264 @ 0x7fb02480b000] coded y,uvDC,uvAC intra: 67.1% 71.9% 65.4% inter: 7.4% 5.0% 3.6%
[libx264 @ 0x7fb02480b000] i16 v,h,dc,p: 40% 41%  9%  9%
[libx264 @ 0x7fb02480b000] i8 v,h,dc,ddl,ddr,vr,hd,vl,hu: 36% 23% 19%  4%  4%  3%  5%  4%  4%
[libx264 @ 0x7fb02480b000] i4 v,h,dc,ddl,ddr,vr,hd,vl,hu: 38% 29% 13%  3%  4%  2%  4%  3%  4%
[libx264 @ 0x7fb02480b000] i8c dc,h,v,p: 51% 22% 24%  4%
[libx264 @ 0x7fb02480b000] Weighted P-Frames: Y:0.8% UV:0.2%
[libx264 @ 0x7fb02480b000] ref P L0: 75.5%  4.9% 14.0%  5.5%  0.0%
[libx264 @ 0x7fb02480b000] ref B L0: 86.6% 11.7%  1.7%
[libx264 @ 0x7fb02480b000] ref B L1: 93.4%  6.6%
[libx264 @ 0x7fb02480b000] kb/s:411.94
trate= 435.2kbits/s speed=0.75x    frame= 1947 fps= 19 q=12.0 size=    4208kB time=00:01:18.91 bitrate= 436.9kbits/s speed=0.751x    frame= 1957 fps= 19 q=12.0 size=    4246kB time=00:01:19.33 bitrate= 438.4kbits/s speed=0.751x    frame= 1968 fps= 19 q=12.0 size=    4291kB time=00:01:19.79 bitrate= 440.6kbits/s speed=0.752x    frame= 1978 fps= 19 q=12.0 size=    4328kB time=00:01:20.20 bitrate= 442.0kbits/s speed=0.752x    frame= 1989 fps= 19 q=12.0 size=    4355kB time=00:01:20.66 bitrate= 442.3kbits/s speed=0.753x    frame= 1999 fps= 19 q=12.0 size=    4390kB time=00:01:21.08 bitrate= 443.5kbits/s speed=0.753x    frame= 2006 fps= 19 q=13.0 size=    4411kB time=00:01:21.37 bitrate= 444.0kbits/s speed=0.751x    frame= 2017 fps= 19 q=13.0 size=    4440kB time=00:01:21.83 bitrate= 444.5kbits/s speed=0.752x    frame= 2028 fps= 19 q=13.0 size=    4460kB time=00:01:22.29 bitrate= 443.9kbits/s speed=0.752x    frame= 2038 fps= 19 q=13.0 size=    4467kB time=00:01:22.70 bitrate= 442.4kbits/s speed=0.752x    frame= 2049 fps= 19 q=12.0 size=    4480kB time=00:01:23.16 bitrate= 441.3kbits/s speed=0.753x    frame= 2059 fps= 19 q=12.0 size=    4487kB time=00:01:23.58 bitrate= 439.8kbits/s speed=0.753x    frame= 2070 fps= 19 q=12.0 size=    4515kB time=00:01:24.04 bitrate= 440.1kbits/s speed=0.753x    frame= 2080 fps= 19 q=12.0 size=    4533kB time=00:01:24.45 bitrate= 439.7kbits/s speed=0.754x    frame= 2091 fps= 19 q=12.0 size=    4560kB time=00:01:24.91 bitrate= 439.9kbits/s speed=0.754x    frame= 2101 fps= 19 q=12.0 size=    4581kB time=00:01:25.33 bitrate= 439.8kbits/s speed=0.754x    frame= 2111 fps= 19 q=12.0 size=    4600kB time=00:01:25.75 bitrate= 439.5kbits/s speed=0.755x    frame= 2122 fps= 19 q=12.0 size=    4627kB time=00:01:26.20 bitrate= 439.7kbits/s speed=0.755x    frame= 2133 fps= 19 q=13.0 size=    4661kB time=00:01:26.66 bitrate= 440.6kbits/s speed=0.756x    frame= 2144 fps= 19 q=13.0 size=    4703kB time=00:01:27.12 bitrate= 442.2kbits/s speed=0.756x    frame= 2155 fps= 19 q=13.0 size=    4741kB time=00:01:27.58 bitrate= 443.5kbits/s speed=0.756x    frame= 2166 fps= 19 q=13.0 size=    4785kB time=00:01:28.04 bitrate= 445.2kbits/s speed=0.757x    frame= 2176 fps= 19 q=13.0 size=    4794kB time=00:01:28.45 bitrate= 444.0kbits/s speed=0.757x    frame= 2186 fps= 19 q=13.0 size=    4829kB time=00:01:28.87 bitrate= 445.1kbits/s speed=0.757x    frame= 2197 fps= 19 q=13.0 size=    4872kB time=00:01:29.33 bitrate= 446.8kbits/s speed=0.758x    frame= 2208 fps= 19 q=14.0 size=    4926kB time=00:01:29.79 bitrate= 449.4kbits/s speed=0.758x    frame= 2218 fps= 19 q=14.0 size=    4972kB time=00:01:30.20 bitrate= 451.6kbits/s speed=0.758x    frame= 2229 fps= 19 q=14.0 size=    5012kB time=00:01:30.66 bitrate= 452.8kbits/s speed=0.759x    frame= 2239 fps= 19 q=14.0 size=    5030kB time=00:01:31.08 bitrate= 452.4kbits/s speed=0.759x    frame= 2249 fps= 19 q=14.0 size=    5044kB time=00:01:31.50 bitrate= 451.6kbits/s speed=0.759x    frame= 2259 fps= 19 q=14.0 size=    5053kB time=00:01:31.91 bitrate= 450.3kbits/s speed=0.76x    frame= 2270 fps= 19 q=14.0 size=    5096kB time=00:01:32.37 bitrate= 451.9kbits/s speed=0.76x    frame= 2280 fps= 19 q=14.0 size=    5117kB time=00:01:32.79 bitrate= 451.8kbits/s speed=0.76x    frame= 2290 fps= 19 q=14.0 size=    5150kB time=00:01:33.20 bitrate= 452.7kbits/s speed=0.76x    frame= 2300 fps= 19 q=14.0 size=    5189kB time=00:01:33.62 bitrate= 454.0kbits/s speed=0.76x    frame= 2310 fps= 19 q=14.0 size=    5222kB time=00:01:34.04 bitrate= 454.9kbits/s speed=0.761x    frame= 2321 fps= 19 q=14.0 size=    5241kB time=00:01:34.50 bitrate= 454.4kbits/s speed=0.761x    frame= 2331 fps= 19 q=14.0 size=    5255kB time=00:01:34.91 bitrate= 453.5kbits/s speed=0.761x    frame= 2341 fps= 19 q=14.0 size=    5284kB time=00:01:35.33 bitrate= 454.1kbits/s speed=0.762x    frame= 2352 fps= 19 q=15.0 size=    5310kB time=00:01:35.79 bitrate= 454.1kbits/s speed=0.762x    frame= 2363 fps= 19 q=15.0 size=    5336kB time=00:01:36.25 bitrate= 454.2kbits/s speed=0.762x    frame= 2374 fps= 19 q=15.0 size=    5361kB time=00:01:36.70 bitrate= 454.1kbits/s speed=0.757x    frame= 2382 fps= 19 q=15.0 size=    5374kB time=00:01:37.04 bitrate= 453.6kbits/s speed=0.757x    frame= 2393 fps= 19 q=15.0 size=    5403kB time=00:01:37.50 bitrate= 453.9kbits/s speed=0.757x    frame= 2403 fps= 19 q=15.0 size=    5435kB time=00:01:37.91 bitrate= 454.7kbits/s speed=0.758x    frame= 2414 fps= 19 q=15.0 size=    5460kB time=00:01:38.37 bitrate= 454.7kbits/s speed=0.758x    frame= 2424 fps= 19 q=15.0 size=    5472kB time=00:01:38.79 bitrate= 453.7kbits/s speed=0.758x    frame= 2435 fps= 19 q=15.0 size=    5513kB time=00:01:39.25 bitrate= 455.1kbits/s speed=0.759x    frame= 2445 fps= 19 q=15.0 size=    5526kB time=00:01:39.66 bitrate= 454.2kbits/s speed=0.759x    frame= 2456 fps= 19 q=15.0 size=    5594kB time=00:01:40.12 bitrate= 457.7kbits/s speed=0.759x    frame= 2467 fps= 19 q=15.0 size=    5631kB time=00:01:40.58 bitrate= 458.6kbits/s speed=0.759x    frame= 2477 fps= 19 q=15.0 size=    5674kB time=00:01:41.00 bitrate= 460.2kbits/s speed=0.76x    frame= 2488 fps= 19 q=16.0 size=    5701kB time=00:01:41.45 bitrate= 460.3kbits/s speed=0.76x    frame= 2499 fps= 19 q=16.0 size=    5730kB time=00:01:41.91 bitrate= 460.6kbits/s speed=0.76x    frame= 2509 fps= 19 q=16.0 size=    5752kB time=00:01:42.33 bitrate= 460.5kbits/s speed=0.761x    frame= 2519 fps= 19 q=16.0 size=    5772kB time=00:01:42.75 bitrate= 460.2kbits/s speed=0.761x    frame= 2529 fps= 19 q=16.0 size=    5781kB time=00:01:43.16 bitrate= 459.0kbits/s speed=0.761x    frame= 2540 fps= 19 q=16.0 size=    5817kB time=00:01:43.62 bitrate= 459.9kbits/s speed=0.761x    frame= 2551 fps= 19 q=16.0 size=    5827kB time=00:01:44.08 bitrate= 458.6kbits/s speed=0.762x    frame= 2562 fps= 19 q=16.0 size=    5891kB time=00:01:44.54 bitrate= 461.6kbits/s speed=0.762x    frame= 2573 fps= 19 q=16.0 size=    5914kB time=00:01:45.00 bitrate= 461.4kbits/s speed=0.762x    frame= 2583 fps= 19 q=16.0 size=    5947kB time=00:01:45.41 bitrate= 462.1kbits/s speed=0.763x    frame= 2593 fps= 19 q=16.0 size=    5985kB time=00:01:45.83 bitrate= 463.3kbits/s speed=0.763x    frame= 2604 fps= 19 q=16.0 size=    6011kB time=00:01:46.29 bitrate= 463.2kbits/s speed=0.763x    frame= 2613 fps= 19 q=16.0 size=    6016kB time=00:01:46.66 bitrate= 462.0kbits/s speed=0.763x    frame= 2624 fps= 19 q=16.0 size=    6018kB time=00:01:47.12 bitrate= 460.2kbits/s speed=0.763x    frame= 2635 fps= 19 q=17.0 size=    6092kB time=00:01:47.58 bitrate= 463.9kbits/s speed=0.764x    frame= 2646 fps= 19 q=17.0 size=    6169kB time=00:01:48.04 bitrate= 467.8kbits/s speed=0.764x    frame= 2657 fps= 19 q=17.0 size=    6194kB time=00:01:48.50 bitrate= 467.7kbits/s speed=0.764x    frame= 2668 fps= 19 q=17.0 size=    6221kB time=00:01:48.95 bitrate= 467.7kbits/s speed=0.764x    frame= 2678 fps= 19 q=17.0 size=    6284kB time=00:01:49.37 bitrate= 470.6kbits/s speed=0.764x    frame= 2689 fps= 19 q=18.0 size=    6343kB time=00:01:49.83 bitrate= 473.1kbits/s speed=0.765x    frame= 2700 fps= 19 q=18.0 size=    6412kB time=00:01:50.29 bitrate= 476.2kbits/s speed=0.765x    frame= 2710 fps= 19 q=18.0 size=    6447kB time=00:01:50.70 bitrate= 477.0kbits/s speed=0.765x    frame= 2721 fps= 19 q=18.0 size=    6486kB time=00:01:51.16 bitrate= 477.9kbits/s speed=0.766x    frame= 2731 fps= 19 q=18.0 size=    6497kB time=00:01:51.58 bitrate= 477.0kbits/s speed=0.766x    frame= 2742 fps= 19 q=18.0 size=    6507kB time=00:01:52.04 bitrate= 475.7kbits/s speed=0.766x    frame= 2752 fps= 19 q=18.0 size=    6554kB time=00:01:52.45 bitrate= 477.4kbits/s speed=0.766x    frame= 2763 fps= 19 q=18.0 size=    6570kB time=00:01:52.91 bitrate= 476.7kbits/s speed=0.767x    frame= 2774 fps= 19 q=18.0 size=    6623kB time=00:01:53.37 bitrate= 478.5kbits/s speed=0.767x    frame= 2784 fps= 19 q=18.0 size=    6656kB time=00:01:53.79 bitrate= 479.2kbits/s speed=0.767x    frame= 2794 fps= 19 q=18.0 size=    6685kB time=00:01:54.20 bitrate= 479.5kbits/s speed=0.767x    frame= 2805 fps= 19 q=18.0 size=    6713kB time=00:01:54.66 bitrate= 479.6kbits/s speed=0.768x    frame= 2816 fps= 19 q=19.0 size=    6742kB time=00:01:55.12 bitrate= 479.7kbits/s speed=0.768x    frame= 2826 fps= 19 q=19.0 size=    6759kB time=00:01:55.54 bitrate= 479.2kbits/s speed=0.768x    frame= 2837 fps= 19 q=19.0 size=    6766kB time=00:01:56.00 bitrate= 477.8kbits/s speed=0.768x    frame= 2847 fps= 19 q=19.0 size=    6777kB time=00:01:56.41 bitrate= 476.9kbits/s speed=0.768x    frame= 2858 fps= 19 q=19.0 size=    6788kB time=00:01:56.87 bitrate= 475.8kbits/s speed=0.769x    frame= 2868 fps= 19 q=18.0 size=    6793kB time=00:01:57.29 bitrate= 474.5kbits/s speed=0.769x    frame= 2876 fps= 19 q=18.0 size=    6803kB time=00:01:57.62 bitrate= 473.8kbits/s speed=0.768x    frame= 2876 fps= 19 q=-1.0 Lsize=    6847kB time=00:01:59.70 bitrate= 468.6kbits/s speed=0.782x    
video:6814kB audio:0kB subtitle:0kB other streams:0kB global headers:0kB muxing overhead: 0.494264%
[libx264 @ 0x7fa77f002800] frame I:148   Avg QP: 1.88  size: 14817
[libx264 @ 0x7fa77f002800] frame P:870   Avg QP: 6.40  size:  3478
[libx264 @ 0x7fa77f002800] frame B:1858  Avg QP: 9.59  size:   946
[libx264 @ 0x7fa77f002800] consecutive B-frames:  9.6% 10.2%  7.9% 72.3%
[libx264 @ 0x7fa77f002800] mb I  I16..4: 27.6% 15.1% 57.3%
[libx264 @ 0x7fa77f002800] mb P  I16..4:  1.8%  1.1%  5.6%  P16..4: 12.2%  3.4%  3.5%  0.0%  0.0%    skip:72.3%
[libx264 @ 0x7fa77f002800] mb B  I16..4:  0.1%  0.0%  0.1%  B16..8: 12.6%  3.2%  1.1%  direct: 1.4%  skip:81.4%  L0:43.7% L1:54.1% BI: 2.2%
[libx264 @ 0x7fa77f002800] final ratefactor: 7.12
[libx264 @ 0x7fa77f002800] 8x8 transform intra:14.3% inter:16.5%
[libx264 @ 0x7fa77f002800] coded y,uvDC,uvAC intra: 70.2% 81.8% 79.9% inter: 5.5% 6.6% 6.4%
[libx264 @ 0x7fa77f002800] i16 v,h,dc,p: 45% 35% 13%  8%
[libx264 @ 0x7fa77f002800] i8 v,h,dc,ddl,ddr,vr,hd,vl,hu: 32% 31% 15%  3%  3%  2%  7%  3%  4%
[libx264 @ 0x7fa77f002800] i4 v,h,dc,ddl,ddr,vr,hd,vl,hu: 40% 30% 12%  3%  4%  2%  4%  2%  3%
[libx264 @ 0x7fa77f002800] i8c dc,h,v,p: 45% 24% 27%  4%
[libx264 @ 0x7fa77f002800] Weighted P-Frames: Y:0.0% UV:0.0%
[libx264 @ 0x7fa77f002800] ref P L0: 80.9%  2.4% 12.8%  3.9%
[libx264 @ 0x7fa77f002800] ref B L0: 88.2% 10.8%  1.0%
[libx264 @ 0x7fa77f002800] ref B L1: 95.7%  4.3%
[libx264 @ 0x7fa77f002800] kb/s:465.75
rm intra:14.4% inter:16.7%
[libx264 @ 0x7f97b600ca00] coded y,uvDC,uvAC intra: 70.0% 81.9% 79.9% inter: 5.3% 6.5% 6.2%
[libx264 @ 0x7f97b600ca00] i16 v,h,dc,p: 44% 35% 13%  8%
[libx264 @ 0x7f97b600ca00] i8 v,h,dc,ddl,ddr,vr,hd,vl,hu: 32% 30% 16%  3%  3%  2%  7%  3%  4%
[libx264 @ 0x7f97b600ca00] i4 v,h,dc,ddl,ddr,vr,hd,vl,hu: 40% 29% 12%  3%  4%  2%  4%  2%  3%
[libx264 @ 0x7f97b600ca00] i8c dc,h,v,p: 44% 24% 27%  5%
[libx264 @ 0x7f97b600ca00] Weighted P-Frames: Y:0.2% UV:0.1%
[libx264 @ 0x7f97b600ca00] ref P L0: 80.1%  2.6% 12.9%  4.4%  0.0%
[libx264 @ 0x7f97b600ca00] ref B L0: 88.0% 11.0%  1.1%
[libx264 @ 0x7f97b600ca00] ref B L1: 95.4%  4.6%
[libx264 @ 0x7f97b600ca00] kb/s:466.14
